<?xml version="1.0" encoding="UTF-8" standalone="no"?> <svg width="100" height="100" viewBox="0 0 100 100" fill="none" xmlns="http://www.w3.org/2000/svg">
<rect width="100" height="100" fill="white"/>
<path d="M76.7314 39.3912C80.601 39.594 81.9504 44.63 78.7006 46.7404L67.0894 54.2808C65.636 55.2246 64.9557 56.9969 65.4042 58.6708L68.9875 72.0438C69.9904 75.7867 65.6179 78.6262 62.6065 76.1877L51.8471 67.4748C50.5004 66.3843 48.6046 66.2849 47.1513 67.2288L35.54 74.7692C32.2903 76.8796 28.2385 73.5985 29.6272 69.981L34.5887 57.0558C35.2097 55.438 34.7184 53.6043 33.3717 52.5137L22.6122 43.8009C19.6009 41.3624 21.4693 36.495 25.3389 36.6978L39.1647 37.4224C40.8952 37.5131 42.4873 36.4791 43.1083 34.8613L48.0699 21.9361C49.4585 18.3186 54.665 18.5914 55.6679 22.3343L59.2512 35.7074C59.6997 37.3812 61.175 38.5759 62.9056 38.6666L76.7314 39.3912Z" fill="#FFE500"/>
<path d="M78.156 45.9017L66.5447 53.4421C64.7281 54.6219 63.8777 56.8373 64.4383 58.9296L68.0216 72.3026C68.7738 75.1098 65.4944 77.2394 63.2359 75.4105L52.4764 66.6977C50.793 65.3345 48.4233 65.2103 46.6066 66.3901L34.9954 73.9305C32.5581 75.5133 29.5193 73.0525 30.5608 70.3394L35.5223 57.4141C36.2986 55.3919 35.6844 53.0998 34.001 51.7366L23.2416 43.0238C20.983 41.1949 22.3843 37.5443 25.2865 37.6964L39.1123 38.421C41.2755 38.5344 43.2657 37.242 44.0419 35.2197L49.0035 22.2945C50.0449 19.5813 53.9498 19.786 54.702 22.5931L58.2853 35.9662C58.8459 38.0585 60.6901 39.5519 62.8532 39.6652L76.6791 40.3898C79.5812 40.5419 80.5933 44.3189 78.156 45.9017Z" stroke="black" stroke-opacity="0.7" stroke-width="2"/>
<path d="M50 27L48 33" stroke="white" stroke-linecap="round" stroke-linejoin="round"/>
<path d="M36 63L34 69" stroke="white" stroke-linecap="round" stroke-linejoin="round"/>
<circle cx="47.5" cy="35.5" r="0.5" fill="white"/>
<circle cx="36.5" cy="61.5" r="0.5" fill="white"/>
</svg>
